# xmcd
#
# Track frame offsets:
#	182
#	14982
#	27895
#	43470
#	55360
#	66055
#	92180
#	107297
#	122497
#	134785
#	147010
#	162890
#	181310
#	194067
#	210050
#	221602
#	232160
#	240055
#	253065
#	268575
#	276752
#	289370
#	300290
#	308867
#
# Disc length: 4310 seconds
# Revision: 3
# Processed by: cddbd v1.5.2PL0 Copyright (c) Steve Scherf et al.
# Submitted via: dBpowerAMP V12.0
#
DISCID=6710d418
DTITLE=Boxcar Willie - The Two Sides Of
DYEAR=1998
DGENRE=Country
TTITLE0=Freightline Fever
TTITLE1=Truck Drivin' Man
TTITLE2=Phantom 309
TTITLE3=Truck Drivin' Son of a Gun
TTITLE4=Six Days on the Road
TTITLE5=Teddy Bear
TTITLE6=White Line Fever
TTITLE7=Girl on a Billboard
TTITLE8=America
TTITLE9=Trucker's Prayer
TTITLE10=Forty Acres
TTITLE11=Convoy
TTITLE12=Spirit of America
TTITLE13=Old Kentucky
TTITLE14=Home Dixie
TTITLE15=Thank You Old Flag of Mine
TTITLE16=How Fast Them Trucks Will Go
TTITLE17=North to Alaska
TTITLE18=Play the Star Spangled Banner Over Me
TTITLE19=Battle Hymn of the Republic
TTITLE20=There's a Star Spangled Banner Waving Somewhere
TTITLE21=Yankee Doodle
TTITLE22=America The Beautiful
TTITLE23=Battle of New Orleans
EXTD=
EXTT0=
EXTT1=
EXTT2=
EXTT3=
EXTT4=
EXTT5=
EXTT6=
EXTT7=
EXTT8=
EXTT9=
EXTT10=
EXTT11=
EXTT12=
EXTT13=
EXTT14=
EXTT15=
EXTT16=
EXTT17=
EXTT18=
EXTT19=
EXTT20=
EXTT21=
EXTT22=
EXTT23=
PLAYORDER=
